<svg width="20" height="20">
<path fill-rule='evenodd' fill="rgb(141,141,141) "
<path class="s0" d="m17.9 5.3c0.4-0.2 0.9-0.1 1.1 0.3q1 2.1 1 4.4c0 5.5-4.5 10-10 10c-5.5 0-10-4.5-10-10c0-5.5 4.5-10 10-10c2.3 0 4.5 0.8 6.2 2.2c0.4 0.2 0.4 0.8 0.1 1.1c-0.2 0.4-0.8 0.5-1.1 0.2c-1.5-1.2-3.3-1.8-5.2-1.8c-4.6 0-8.3 3.7-8.3 8.3c0 4.6 3.7 8.3 8.3 8.3c4.6 0 8.3-3.7 8.3-8.3q0-1.9-0.8-3.6c-0.2-0.4 0-0.9 0.4-1.1zm0 0m-7.9-2c0.5 0 0.8 0.4 0.8 0.9v5h3.4c0.4 0 0.8 0.3 0.8 0.8c0 0.5-0.4 0.8-0.8 0.8h-4.2c-0.5 0-0.8-0.3-0.8-0.8v-5.8c0-0.5 0.3-0.9 0.8-0.9zm0 0" /></svg>


<svg width="10" height="8">
<path fill-rule='evenodd' fill="rgb(171,171,171) "
<path class="s0" d="m9.8 3.6q0.2 0.2 0.2 0.4q0 0.2-0.2 0.4l-3.6 3.4q-0.1 0.2-0.4 0.2q-0.2 0-0.3-0.2l-0.4-0.3q-0.1-0.1-0.1-0.3q0-0.3 0.1-0.4l2.2-2h-6.8c-0.3 0-0.5-0.3-0.5-0.6v-0.4c0-0.3 0.2-0.6 0.5-0.6h6.7l-2.1-2q-0.1-0.1-0.1-0.4q0-0.2 0.1-0.3l0.4-0.3q0.1-0.2 0.3-0.2q0.3 0 0.4 0.2l3.6 3.4" /></svg>