<svg version="1.2" xmlns="http://www.w3.org/2000/svg" viewBox="0 0 20 21" width="20" height="21">

<path fill-rule='evenodd' fill="rgb(2253,61,87)"
d="m20 10.6c0 2.6-1 5.1-2.9 7c-1.9 1.9-4.4 3-7.1 3c-2.7 0-5.2-1.1-7.1-3c-1.9-1.9-2.9-4.4-2.9-7c0-2.7 1-5.2 2.9-7.1c1.9-1.9 4.4-2.9 7.1-2.9c2.7 0 5.2 1 7.1 2.9c1.9 1.9 2.9 4.4 2.9 7.1zm-10 8.8c-4.9 0-8.8-4-8.8-8.8c0-4.9 3.9-8.9 8.8-8.9c4.9 0 8.8 4 8.8 8.9c0 4.8-3.9 8.8-8.8 8.8zm4.8-12.1c0.2 0.3 0.2 0.6 0 0.9l-5.6 5.6q-0.2 0.1-0.4 0.1q-0.3 0-0.4-0.1l-3.2-3.2c-0.2-0.2-0.2-0.6 0-0.8c0.3-0.2 0.6-0.2 0.9 0l2.7 2.7l5.1-5.2c0.3-0.2 0.6-0.2 0.9 0z" /></svg>