<svg version="1.2" xmlns="http://www.w3.org/2000/svg" viewBox="0 0 16 16" width="16" height="16"><style>.s0{fill:#727272}</style><path class="s0" d="m15.8 6.9c0.2 0.2 0.3 0.6 0 0.9c-0.2 0.3-0.6 0.3-0.9 0l-0.3-0.2v6.4c0 1.1-0.8 2-1.9 2h-3.5v-5.3c0-0.6-0.5-1.1-1.2-1.1c-0.6 0-1.1 0.5-1.1 1.1v5.3h-3.6c-1.1 0-1.9-0.9-1.9-2v-6.4l-0.3 0.2c-0.3 0.3-0.7 0.3-0.9 0c-0.3-0.3-0.2-0.7 0-0.9l7.8-6.9zm-2.4 7.2c0 0.3-0.3 0.6-0.7 0.6h-2.2v-3.9c0-1.4-1.1-2.5-2.4-2.5c-1.4 0-2.5 1.1-2.5 2.5v3.9h-2.3c-0.3 0-0.6-0.3-0.6-0.6v-7.6l5.3-4.7l5.4 4.7z" /></svg>